<svg xmlns="http://www.w3.org/2000/svg" viewBox="0 0 32 32">
  <!-- Violet rounded background matching app theme -->
  <rect width="32" height="32" rx="7" fill="#7c3aed"/>
  <!-- Dutch flag clipped inside a speech bubble shape -->
  <defs>
    <clipPath id="b">
      <path d="M5 6 Q5 4 7 4 H25 Q27 4 27 6 V18 Q27 20 25 20 H15 L10 27 L10 20 H7 Q5 20 5 18 Z"/>
    </clipPath>
  </defs>
  <rect x="4" y="4"  width="24" height="5.33" fill="#AE1C28" clip-path="url(#b)"/>
  <rect x="4" y="9.33" width="24" height="5.33" fill="#ffffff" clip-path="url(#b)"/>
  <rect x="4" y="14.67" width="24" height="13" fill="#21468B" clip-path="url(#b)"/>
  <!-- Subtle bubble border -->
  <path d="M5 6 Q5 4 7 4 H25 Q27 4 27 6 V18 Q27 20 25 20 H15 L10 27 L10 20 H7 Q5 20 5 18 Z"
        fill="none" stroke="rgba(255,255,255,0.25)" stroke-width="0.75"/>
</svg>
