<svg xmlns="http://www.w3.org/2000/svg" viewBox="0 0 32 32">
  <defs>
    <clipPath id="b">
      <path d="M2 5 Q2 2 5 2 H27 Q30 2 30 5 V20 Q30 23 27 23 H18 L13 30 L13 23 H5 Q2 23 2 20 Z"/>
    </clipPath>
  </defs>
  <rect x="2" y="2"  width="28" height="7" fill="#AE1C28" clip-path="url(#b)"/>
  <rect x="2" y="9"  width="28" height="7" fill="#ffffff" clip-path="url(#b)"/>
  <rect x="2" y="16" width="28" height="16" fill="#21468B" clip-path="url(#b)"/>
  <path d="M2 5 Q2 2 5 2 H27 Q30 2 30 5 V20 Q30 23 27 23 H18 L13 30 L13 23 H5 Q2 23 2 20 Z"
        fill="none" stroke="#cccccc" stroke-width="1"/>
</svg>
